<svg width="64" height="64" viewBox="0 0 64 64" fill="none" xmlns="http://www.w3.org/2000/svg">
<path d="M44.75 7.99999C44.75 7.58578 44.4142 7.24999 44 7.24999C43.5858 7.24999 43.25 7.58578 43.25 7.99999H44.75ZM44 20V20.75V20ZM43.25 56C43.25 56.4142 43.5858 56.75 44 56.75C44.4142 56.75 44.75 56.4142 44.75 56H43.25ZM20.75 7.99999C20.75 7.58578 20.4142 7.24999 20 7.24999C19.5858 7.24999 19.25 7.58578 19.25 7.99999H20.75ZM20 20V20.75V20ZM20 44V43.25V44ZM19.25 56C19.25 56.4142 19.5858 56.75 20 56.75C20.4142 56.75 20.75 56.4142 20.75 56H19.25ZM8.00001 19.25C7.5858 19.25 7.25001 19.5858 7.25001 20C7.25001 20.4142 7.5858 20.75 8.00001 20.75V19.25ZM56 20.75C56.4142 20.75 56.75 20.4142 56.75 20C56.75 19.5858 56.4142 19.25 56 19.25V20.75ZM8.00001 43.25C7.5858 43.25 7.25001 43.5858 7.25001 44C7.25001 44.4142 7.5858 44.75 8.00001 44.75V43.25ZM56 44.75C56.4142 44.75 56.75 44.4142 56.75 44C56.75 43.5858 56.4142 43.25 56 43.25V44.75ZM32.75 7.99999C32.75 7.58578 32.4142 7.24999 32 7.24999C31.5858 7.24999 31.25 7.58578 31.25 7.99999H32.75ZM31.25 56C31.25 56.4142 31.5858 56.75 32 56.75C32.4142 56.75 32.75 56.4142 32.75 56H31.25ZM14.0695 56.9228L13.729 57.591L14.0695 56.9228ZM7.07724 49.9305L6.40898 50.271L7.07724 49.9305ZM56.9228 49.9305L57.591 50.271L56.9228 49.9305ZM49.9305 56.9228L50.271 57.591L49.9305 56.9228ZM49.9305 7.07722L50.271 6.40897L49.9305 7.07722ZM56.9228 14.0695L57.591 13.729L56.9228 14.0695ZM14.0695 7.07722L13.729 6.40897L14.0695 7.07722ZM7.07724 14.0695L6.40898 13.729L7.07724 14.0695ZM43.25 7.99999V20H44.75V7.99999H43.25ZM43.25 44V56H44.75V44H43.25ZM19.25 7.99999V20H20.75V7.99999H19.25ZM19.25 44L19.25 56H20.75L20.75 44H19.25ZM8.00001 20.75L20 20.75V19.25L8.00001 19.25V20.75ZM20 20.75H32V19.25H20V20.75ZM32 20.75L44 20.75V19.25L32 19.25V20.75ZM44 20.75H56V19.25H44V20.75ZM8.00001 44.75H20V43.25H8.00001V44.75ZM20 44.75L32 44.75V43.25L20 43.25V44.75ZM32 44.75H44V43.25H32V44.75ZM44 44.75H56V43.25H44V44.75ZM31.25 7.99999V20H32.75V7.99999H31.25ZM31.25 20L31.25 44H32.75L32.75 20H31.25ZM31.25 44V56H32.75V44H31.25ZM30.9333 6.08333H33.0667V4.58333H30.9333V6.08333ZM57.9167 30.9333V33.0667H59.4167V30.9333H57.9167ZM33.0667 57.9167H30.9333V59.4167H33.0667V57.9167ZM6.08334 33.0667V30.9333H4.58334V33.0667H6.08334ZM30.9333 57.9167C26.4405 57.9167 23.1161 57.9161 20.4857 57.7012C17.864 57.487 15.9979 57.0636 14.41 56.2545L13.729 57.591C15.5636 58.5258 17.6491 58.9744 20.3635 59.1962C23.0692 59.4172 26.4653 59.4167 30.9333 59.4167V57.9167ZM4.58334 33.0667C4.58334 37.5347 4.58276 40.9308 4.80382 43.6365C5.0256 46.3509 5.47419 48.4364 6.40898 50.271L7.74549 49.59C6.9364 48.0021 6.51304 46.136 6.29884 43.5144C6.08393 40.8839 6.08334 37.5595 6.08334 33.0667H4.58334ZM14.41 56.2545C11.5405 54.7924 9.20756 52.4595 7.74549 49.59L6.40898 50.271C8.01486 53.4227 10.5773 55.9851 13.729 57.591L14.41 56.2545ZM57.9167 33.0667C57.9167 37.5595 57.9161 40.8839 57.7012 43.5144C57.487 46.136 57.0636 48.0021 56.2545 49.59L57.591 50.271C58.5258 48.4364 58.9744 46.3509 59.1962 43.6365C59.4173 40.9308 59.4167 37.5347 59.4167 33.0667H57.9167ZM33.0667 59.4167C37.5347 59.4167 40.9309 59.4172 43.6365 59.1962C46.3509 58.9744 48.4364 58.5258 50.271 57.591L49.59 56.2545C48.0021 57.0636 46.136 57.487 43.5144 57.7012C40.884 57.9161 37.5595 57.9167 33.0667 57.9167V59.4167ZM56.2545 49.59C54.7925 52.4595 52.4595 54.7924 49.59 56.2545L50.271 57.591C53.4227 55.9851 55.9852 53.4227 57.591 50.271L56.2545 49.59ZM33.0667 6.08333C37.5595 6.08333 40.884 6.08391 43.5144 6.29882C46.136 6.51302 48.0021 6.93638 49.59 7.74548L50.271 6.40897C48.4364 5.47417 46.3509 5.02558 43.6365 4.80381C40.9309 4.58274 37.5347 4.58333 33.0667 4.58333V6.08333ZM59.4167 30.9333C59.4167 26.4653 59.4173 23.0691 59.1962 20.3635C58.9744 17.6491 58.5258 15.5636 57.591 13.729L56.2545 14.41C57.0636 15.9979 57.487 17.864 57.7012 20.4856C57.9161 23.116 57.9167 26.4405 57.9167 30.9333H59.4167ZM49.59 7.74548C52.4595 9.20755 54.7925 11.5405 56.2545 14.41L57.591 13.729C55.9852 10.5773 53.4227 8.01485 50.271 6.40897L49.59 7.74548ZM30.9333 4.58333C26.4653 4.58333 23.0692 4.58274 20.3635 4.80381C17.6491 5.02558 15.5636 5.47417 13.729 6.40897L14.41 7.74548C15.9979 6.93638 17.864 6.51302 20.4856 6.29882C23.1161 6.08391 26.4405 6.08333 30.9333 6.08333V4.58333ZM6.08334 30.9333C6.08334 26.4405 6.08393 23.116 6.29884 20.4856C6.51304 17.864 6.9364 15.9979 7.74549 14.41L6.40898 13.729C5.47419 15.5636 5.0256 17.6491 4.80382 20.3635C4.58276 23.0691 4.58334 26.4653 4.58334 30.9333H6.08334ZM13.729 6.40897C10.5773 8.01485 8.01486 10.5773 6.40898 13.729L7.74549 14.41C9.20756 11.5405 11.5405 9.20755 14.41 7.74548L13.729 6.40897Z" fill="white"/>
</svg>
